<svg xmlns="http://www.w3.org/2000/svg" width="24" height="24" viewBox="0 0 24 24" fill="none" stroke="#0891B2" stroke-width="2" stroke-linecap="round" stroke-linejoin="round" class="lucide lucide-brain">
  <path d="M9.5 2a2.5 2.5 0 1 1 0 5 2.5 2.5 0 0 1 0-5Z"></path>
  <path d="M14.5 2a2.5 2.5 0 1 0 0 5 2.5 2.5 0 0 0 0-5Z"></path>
  <path d="M3 7a2 2 0 0 1 2-2h4a2 2 0 0 1 2 2v13"></path>
  <path d="M21 7a2 2 0 0 0-2-2h-4a2 2 0 0 0-2 2v13"></path>
  <path d="M12 22v-5a2 2 0 0 1 2-2h.5"></path>
  <path d="M12 22v-5a2 2 0 0 0-2-2h-.5"></path>
  <path d="M7 14h1"></path>
  <path d="M16 14h1"></path>
  <path d="M10 11v.01"></path>
  <path d="M14 11v.01"></path>
  <path d="M7 9v.01"></path>
  <path d="M17 9v.01"></path>
</svg>